<?xml version="1.0" standalone="no"?>
<!DOCTYPE svg PUBLIC "-//W3C//DTD SVG 20010904//EN"
 "http://www.w3.org/TR/2001/REC-SVG-20010904/DTD/svg10.dtd">
<svg version="1.0" xmlns="http://www.w3.org/2000/svg"
 width="512.000000pt" height="512.000000pt" viewBox="0 0 512.000000 512.000000"
 preserveAspectRatio="xMidYMid meet">

<g transform="translate(0.000000,512.000000) scale(0.100000,-0.100000)"
fill="#000000" stroke="none">
<path d="M960 4146 c-147 -41 -267 -162 -306 -310 -20 -76 -20 -2156 0 -2232
41 -155 171 -280 324 -313 35 -7 205 -11 493 -11 304 0 447 -3 462 -11 12 -6
135 -123 272 -259 259 -257 276 -270 355 -270 79 0 96 13 355 270 138 136 260
253 272 259 15 8 158 11 462 11 284 0 459 4 493 11 157 33 293 170 327 327 7
36 11 251 11 668 0 557 -2 619 -17 644 -34 58 -116 68 -164 21 l-29 -29 0
-612 c0 -435 -3 -625 -12 -658 -16 -64 -86 -134 -150 -150 -32 -8 -184 -12
-492 -12 -430 0 -447 -1 -503 -21 -53 -20 -81 -45 -306 -267 l-247 -246 -243
241 c-149 148 -259 250 -287 264 l-45 24 -485 5 c-449 5 -488 6 -523 24 -51
25 -103 88 -116 141 -16 64 -15 2069 1 2133 16 64 86 134 150 150 67 17 3029
17 3096 0 64 -16 134 -86 150 -150 7 -28 12 -124 12 -233 l0 -187 29 -29 c48
-47 130 -37 164 21 14 24 17 59 17 219 0 104 -5 214 -11 243 -33 153 -158 283
-313 324 -72 19 -3127 19 -3196 0z"/>
<path d="M1741 3504 c-133 -36 -247 -132 -308 -259 -31 -66 -37 -89 -41 -170
-4 -75 -1 -106 16 -161 23 -77 62 -143 111 -190 l32 -31 -53 -30 c-152 -86
-270 -238 -312 -400 -18 -70 -21 -210 -5 -266 20 -75 112 -101 171 -48 l32 28
1 114 c1 156 22 208 119 304 44 43 93 81 129 98 344 166 751 -67 724 -413 -6
-70 -4 -82 16 -111 28 -42 64 -56 113 -43 61 15 78 49 82 164 5 119 -8 185
-53 280 -62 129 -169 241 -288 301 l-38 20 31 35 c169 193 167 463 -5 643
-122 128 -307 180 -474 135z m205 -209 c223 -66 250 -376 42 -479 -58 -29
-142 -35 -210 -14 -50 15 -123 79 -149 130 -61 119 -17 267 97 334 77 45 139
53 220 29z"/>
<path d="M3822 3366 c-20 -7 -163 -139 -388 -359 l-357 -348 -137 136 c-125
123 -140 135 -173 135 -71 0 -117 -44 -117 -111 0 -30 22 -55 212 -245 l211
-213 156 149 c86 82 286 277 444 432 287 282 288 283 287 325 0 74 -68 123
-138 99z"/>
</g>
</svg>
