<?xml version="1.0" standalone="no"?>
<!DOCTYPE svg PUBLIC "-//W3C//DTD SVG 20010904//EN"
 "http://www.w3.org/TR/2001/REC-SVG-20010904/DTD/svg10.dtd">
<svg version="1.0" xmlns="http://www.w3.org/2000/svg"
 width="512.000000pt" height="512.000000pt" viewBox="0 0 512.000000 512.000000"
 preserveAspectRatio="xMidYMid meet">

<g transform="translate(0.000000,512.000000) scale(0.100000,-0.100000)"
fill="#000000" stroke="none">
<path d="M203 4742 c-100 -35 -171 -115 -193 -216 -8 -36 -10 -444 -8 -1396
l3 -1345 28 -57 c32 -64 80 -111 146 -142 l46 -21 2335 0 2335 0 46 21 c66 31
114 78 146 142 l28 57 0 1375 0 1375 -28 57 c-32 64 -80 111 -146 142 l-46 21
-2320 2 c-2207 2 -2323 2 -2372 -15z m4662 -194 c58 -26 55 48 55 -1388 0
-1436 3 -1362 -55 -1388 -38 -17 -4572 -17 -4610 0 -58 26 -55 -48 -55 1390 1
1421 -2 1355 51 1384 34 19 4574 21 4614 2z"/>
<path d="M2111 3746 c-51 -28 -50 -24 -51 -583 0 -384 3 -529 12 -548 21 -47
85 -68 131 -44 12 7 205 126 428 265 407 254 429 270 429 324 0 54 -22 70
-429 324 -223 139 -416 258 -428 265 -28 14 -62 14 -92 -3z"/>
<path d="M966 1150 c-63 -16 -153 -70 -197 -117 -22 -24 -54 -73 -71 -109
l-30 -64 -293 0 c-317 0 -336 -3 -361 -51 -18 -35 -18 -63 0 -98 25 -48 44
-51 360 -51 l293 0 36 -74 c44 -89 103 -146 195 -189 61 -29 76 -32 162 -32
86 0 101 3 162 32 92 43 151 100 195 189 l36 74 1793 0 c1369 0 1799 3 1819
12 29 13 55 55 55 88 0 33 -26 75 -55 88 -20 9 -450 12 -1819 12 l-1793 0 -36
74 c-67 134 -188 215 -335 222 -42 2 -94 -1 -116 -6z m204 -224 c59 -39 85
-89 85 -166 0 -78 -26 -127 -88 -168 -56 -37 -153 -39 -210 -3 -76 47 -111
140 -88 229 14 51 75 117 123 131 53 16 135 6 178 -23z"/>
</g>
</svg>
