<?xml version="1.0" standalone="no"?>
<!DOCTYPE svg PUBLIC "-//W3C//DTD SVG 20010904//EN"
 "http://www.w3.org/TR/2001/REC-SVG-20010904/DTD/svg10.dtd">
<svg version="1.0" xmlns="http://www.w3.org/2000/svg"
 width="512.000000pt" height="512.000000pt" viewBox="0 0 512.000000 512.000000"
 preserveAspectRatio="xMidYMid meet">

<g transform="translate(0.000000,512.000000) scale(0.100000,-0.100000)"
fill="#000000" stroke="none">
<path d="M464 4551 c-23 -10 -52 -34 -65 -52 l-24 -34 -3 -436 -3 -435 23 -34
c36 -52 80 -78 151 -85 34 -4 226 -5 427 -3 317 3 369 5 395 20 39 21 71 56
84 91 7 18 11 174 11 445 0 413 -1 417 -23 457 -14 26 -37 48 -67 63 -44 22
-49 22 -455 22 -378 0 -413 -2 -451 -19z m634 -528 l2 -183 -185 0 -185 0 0
185 0 185 183 -2 182 -3 3 -182z"/>
<path d="M1945 3098 c-40 -14 -84 -56 -101 -95 -20 -47 -20 -838 0 -886 17
-42 66 -83 114 -97 26 -8 438 -10 1357 -8 l1320 3 38 24 c21 12 46 40 57 62
19 36 20 60 20 459 0 399 -1 423 -20 459 -11 22 -36 50 -57 62 l-38 24 -1330
2 c-910 1 -1339 -2 -1360 -9z m2445 -538 l0 -180 -1100 0 -1100 0 0 180 0 180
1100 0 1100 0 0 -180z"/>
<path d="M501 1640 c-43 -10 -80 -38 -109 -80 l-23 -34 3 -435 3 -436 24 -34
c50 -69 57 -71 516 -71 406 0 411 0 455 23 30 14 53 36 67 62 22 40 23 44 23
457 0 271 -4 427 -11 445 -13 35 -45 70 -84 91 -26 15 -79 17 -430 19 -220 1
-415 -2 -434 -7z m597 -542 l-3 -183 -182 -3 -183 -2 0 185 0 185 185 0 185 0
-2 -182z"/>
</g>
</svg>
